<svg width="24" height="24" viewBox="0 0 24 24" fill="none" xmlns="http://www.w3.org/2000/svg">
<path d="M17.23 6.76256L17.4897 6.50291L17.3196 6.17745C17.0654 5.69097 16.9775 5.13465 17.0692 4.59348C17.1609 4.05231 17.4273 3.55604 17.8276 3.1805C18.2279 2.80495 18.7401 2.57077 19.286 2.51373C19.8319 2.4567 20.3815 2.57994 20.8508 2.86464C21.3201 3.14934 21.6833 3.57983 21.8849 4.09036C22.0864 4.60089 22.1154 5.16337 21.9672 5.69189C21.819 6.2204 21.5019 6.68588 21.0643 7.01722C20.6274 7.34803 20.0944 7.52696 19.5464 7.52679C19.1367 7.52164 18.7341 7.41951 18.3715 7.22874L18.0456 7.05726L17.7852 7.31768L15.9007 9.20212L15.0472 10.0557H16.2543H19.3654C19.7043 10.0557 20.0293 10.1903 20.2689 10.4299C20.5085 10.6696 20.6431 10.9946 20.6431 11.3335V20.2223C20.6431 20.5612 20.5085 20.8862 20.2689 21.1259C20.0293 21.3655 19.7043 21.5001 19.3654 21.5001H5.14315C4.80426 21.5001 4.47925 21.3655 4.23962 21.1259C3.99999 20.8862 3.86537 20.5612 3.86537 20.2223V11.3335C3.86537 10.9946 3.99999 10.6696 4.23962 10.4299C4.47925 10.1903 4.80426 10.0557 5.14315 10.0557H8.25426H9.46137L8.60781 9.20212L6.72337 7.31768L6.46292 7.05724L6.13697 7.22876C5.77724 7.41806 5.37806 7.52013 4.97165 7.52677C4.43138 7.52356 3.9068 7.34447 3.47732 7.01654C3.04661 6.68766 2.73512 6.22709 2.59026 5.7049C2.44539 5.18271 2.47507 4.62749 2.67479 4.12372C2.8745 3.61995 3.23332 3.19521 3.69664 2.91413C4.15996 2.63305 4.70241 2.51101 5.24147 2.5666C5.78052 2.62218 6.28667 2.85233 6.68289 3.22204C7.0791 3.59174 7.3437 4.08076 7.43642 4.61469C7.52914 5.14861 7.44491 5.6982 7.19653 6.17985L7.02918 6.50437L7.28737 6.76256L10.3985 9.87368L10.5449 10.0201H10.752H13.7654H13.9725L14.1189 9.87368L17.23 6.76256Z" fill="#FFFFFF" stroke="#FFFFFF"/>
<path d="M10.2578 14.6756C10.3976 14.5366 10.4929 14.3592 10.5317 14.166C10.5705 13.9727 10.5511 13.7723 10.4759 13.5901C10.4007 13.4079 10.2731 13.2521 10.1092 13.1425C9.9454 13.0329 9.75273 12.9744 9.55561 12.9744C9.3585 12.9744 9.16583 13.0329 9.002 13.1425C8.83818 13.2521 8.71058 13.4079 8.63537 13.5901C8.56017 13.7723 8.54074 13.9727 8.57955 14.166C8.61836 14.3592 8.71367 14.5366 8.85339 14.6756C8.94517 14.7686 9.05451 14.8424 9.17506 14.8928C9.2956 14.9432 9.42496 14.9692 9.55561 14.9692C9.68627 14.9692 9.81563 14.9432 9.93617 14.8928C10.0567 14.8424 10.1661 14.7686 10.2578 14.6756ZM15.5912 14.6756C15.7309 14.5366 15.8262 14.3592 15.865 14.166C15.9038 13.9727 15.8844 13.7723 15.8092 13.5901C15.734 13.4079 15.6064 13.2521 15.4426 13.1425C15.2787 13.0329 15.0861 12.9744 14.8889 12.9744C14.6918 12.9744 14.4992 13.0329 14.3353 13.1425C14.1715 13.2521 14.0439 13.4079 13.9687 13.5901C13.8935 13.7723 13.8741 13.9727 13.9129 14.166C13.9517 14.3592 14.047 14.5366 14.1867 14.6756C14.2785 14.7686 14.3878 14.8424 14.5084 14.8928C14.6289 14.9432 14.7583 14.9692 14.8889 14.9692C15.0196 14.9692 15.149 14.9432 15.2695 14.8928C15.3901 14.8424 15.4994 14.7686 15.5912 14.6756ZM10.0001 17.5556C10.0001 17.7914 10.0937 18.0175 10.2604 18.1842C10.4271 18.3509 10.6532 18.4445 10.8889 18.4445H13.5556C13.7914 18.4445 14.0175 18.3509 14.1842 18.1842C14.3509 18.0175 14.4445 17.7914 14.4445 17.5556C14.4445 17.3199 14.3509 17.0938 14.1842 16.9271C14.0175 16.7604 13.7914 16.6667 13.5556 16.6667H10.8889C10.6532 16.6667 10.4271 16.7604 10.2604 16.9271C10.0937 17.0938 10.0001 17.3199 10.0001 17.5556Z" fill="#16171B"/>
</svg>
