<svg width="21" height="14" viewBox="0 0 21 14" fill="none" xmlns="http://www.w3.org/2000/svg">
<path d="M4.29978 3.33068L4.29923 3.33164C3.99699 3.8593 3.74746 4.44203 3.35594 5.35636C3.23786 5.63214 3.10685 5.93808 2.95759 6.28177L4.29978 3.33068ZM4.29978 3.33068C4.49946 2.98159 4.65197 2.76496 4.7554 2.64264C4.76162 2.63529 4.7674 2.62858 4.77274 2.6225C5.00298 2.53114 5.44749 2.36232 5.92259 2.20264C6.131 2.13259 6.33239 2.06869 6.51426 2.01592L7.00948 3.05251L8.42514 2.80079L8.42524 2.80077L8.42535 2.80075L8.42538 2.80075L8.42549 2.80073L8.42754 2.80036L8.43844 2.79845L8.48499 2.79039C8.52646 2.78327 8.58779 2.77289 8.66438 2.76032C8.81809 2.73511 9.03045 2.70157 9.2652 2.66822C9.77216 2.59619 10.2548 2.54419 10.5098 2.54411M4.29978 3.33068L12.9053 0.940165M3.21546 11.1367C3.24208 10.9376 3.30602 10.6001 3.47358 10.2772C3.56285 10.1051 3.70902 9.88184 3.93699 9.67873C3.59623 9.11268 3.40158 8.45037 3.40136 7.74996L3.21546 11.1367ZM3.21546 11.1367C2.98123 11.0033 2.71833 10.8539 2.41086 10.6861L3.21546 11.1367ZM12.9053 0.940165C12.9053 0.940165 11.3188 0.654959 10.5104 0.654364V2.54411C10.5102 2.54411 10.51 2.54411 10.5098 2.54411M12.9053 0.940165L12.571 2.8001M12.9053 0.940165C12.571 2.8001 12.5711 2.80011 12.5711 2.80012L12.5712 2.80014L12.5714 2.80016L13.9886 3.05493L14.4856 2.01598M12.9053 0.940165L13.1414 0.446563L12.9053 0.940165ZM10.5098 2.54411C10.7648 2.54441 11.2422 2.59631 11.7427 2.66809C11.9747 2.70135 12.1842 2.73477 12.3358 2.7599C12.4113 2.77242 12.4718 2.78276 12.5126 2.78984L12.5584 2.79785L12.569 2.79975L12.571 2.8001M10.5098 2.54411L12.571 2.8001M12.571 2.8001L3.40136 7.74877C3.40073 5.75285 4.98089 4.06232 7.02748 4.03366L7.04072 4.03347H7.05395H7.07913C8.65643 4.03347 9.96658 5.02245 10.5 6.38512C11.0332 5.02262 12.3428 4.03347 13.9209 4.03347H13.946H13.9593L13.9725 4.03366C16.021 4.06235 17.5986 5.75535 17.5986 7.74877C17.5986 8.44976 17.4039 9.11263 17.0628 9.67908C17.2902 9.88181 17.4362 10.1046 17.5254 10.2764C17.6935 10.6 17.7575 10.9384 17.784 11.1373C18.0186 11.0037 18.2815 10.8542 18.5886 10.6864L18.5891 10.6861C18.5897 10.6858 18.5903 10.6854 18.5909 10.6851C18.599 10.6141 18.6052 10.5143 18.609 10.3612C18.6165 10.056 18.5927 9.27197 18.4928 8.39767C18.3884 7.48411 18.2253 6.70434 18.0421 6.28243L18.0418 6.28177C17.8959 5.9456 17.7675 5.64546 17.6514 5.3743C17.2558 4.45015 17.0042 3.86251 16.7001 3.33164L16.699 3.32971C16.5001 2.98136 16.3476 2.76477 16.2441 2.64235C16.2377 2.63481 16.2318 2.62795 16.2264 2.62173M14.4856 2.01598C14.6675 2.06875 14.8689 2.13264 15.0774 2.20267C15.5507 2.36165 15.9944 2.52991 16.2264 2.62173M14.4856 2.01598L14.6101 1.75558L14.8462 1.26198L14.8563 1.24094L14.8639 1.2239L14.862 1.22812L14.8582 1.2365L14.8504 1.25303C14.849 1.25602 14.8476 1.259 14.8462 1.26197C14.8424 1.2698 14.8386 1.27754 14.8348 1.28518C14.8243 1.30622 14.8136 1.32667 14.8025 1.34655C14.7805 1.38614 14.7566 1.42455 14.7306 1.4617C14.679 1.53528 14.6141 1.61029 14.5319 1.6784C14.5216 1.68699 14.5112 1.69528 14.5007 1.70326C14.3181 1.84302 14.1299 1.88975 14.0191 1.88975C13.9915 1.88975 13.9765 1.8889 13.9764 1.88963C13.9762 1.89136 14.0604 1.90199 14.2611 1.95405C14.3316 1.97234 14.4067 1.99312 14.4856 2.01598ZM16.2264 2.62173C16.29 2.64694 16.3377 2.66639 16.3657 2.6783L17.1059 0.939689L16.3598 2.67579C16.2457 2.62672 16.1861 2.57753 16.1798 2.57229C16.1789 2.57149 16.1784 2.57107 16.1784 2.57108C16.1783 2.57112 16.1946 2.58558 16.2264 2.62173ZM2.50718 8.39731C2.40733 9.27159 2.38346 10.0557 2.391 10.3613C2.39477 10.5143 2.40099 10.6141 2.4091 10.6851C2.40956 10.6854 2.41003 10.6856 2.4105 10.6859L2.50718 8.39731ZM2.50718 8.39731C2.61144 7.4843 2.77426 6.70475 2.9573 6.28243L2.50718 8.39731ZM9.59619 10.4583C9.98915 10.0844 10.2994 9.625 10.5 9.1127C10.7005 9.62507 11.0108 10.0846 11.4038 10.4585C11.3877 10.4593 11.3718 10.4601 11.3561 10.4609C11.1036 10.473 10.8957 10.4763 10.7543 10.4766C10.6839 10.4768 10.6305 10.4763 10.5969 10.4758L10.562 10.4751L10.559 10.475L10.5586 10.475L10.5579 10.475L10.557 10.475L10.5569 10.475L10.5565 10.475L10.5 10.4732L10.4435 10.4749L10.4435 10.4749L10.4432 10.4749L10.4432 10.4749L10.4422 10.475L10.4415 10.475L10.4411 10.475L10.438 10.4751L10.4031 10.4757C10.3696 10.4762 10.3161 10.4768 10.2457 10.4766C10.1043 10.4762 9.89641 10.4728 9.6439 10.4607C9.62814 10.4599 9.61223 10.4591 9.59619 10.4583Z" fill="#FFFFFF" stroke="#FFFFFF" stroke-width="3.77949"/>
</svg>
