<svg width="32" height="32" viewBox="0 0 32 32" fill="none" xmlns="http://www.w3.org/2000/svg">
<path d="M25.7598 2.66663H6.23984C4.27984 2.66663 2.6665 4.27996 2.6665 6.23996V9.74663C2.6665 11.72 4.27984 13.3333 6.23984 13.3333H25.7465C27.7198 13.3333 29.3332 11.72 29.3332 9.75996V6.23996C29.3332 4.27996 27.7198 2.66663 25.7598 2.66663ZM8.99984 9.33329C8.99984 9.87996 8.5465 10.3333 7.99984 10.3333C7.45317 10.3333 6.99984 9.87996 6.99984 9.33329V6.66663C6.99984 6.11996 7.45317 5.66663 7.99984 5.66663C8.5465 5.66663 8.99984 6.11996 8.99984 6.66663V9.33329ZM14.3332 9.33329C14.3332 9.87996 13.8798 10.3333 13.3332 10.3333C12.7865 10.3333 12.3332 9.87996 12.3332 9.33329V6.66663C12.3332 6.11996 12.7865 5.66663 13.3332 5.66663C13.8798 5.66663 14.3332 6.11996 14.3332 6.66663V9.33329ZM23.9998 8.99996H18.6665C18.1198 8.99996 17.6665 8.54663 17.6665 7.99996C17.6665 7.45329 18.1198 6.99996 18.6665 6.99996H23.9998C24.5465 6.99996 24.9998 7.45329 24.9998 7.99996C24.9998 8.54663 24.5465 8.99996 23.9998 8.99996Z" fill="#939393"/>
<path d="M25.7598 18.6666H6.23984C4.27984 18.6666 2.6665 20.28 2.6665 22.24V25.7466C2.6665 27.72 4.27984 29.3333 6.23984 29.3333H25.7465C27.7198 29.3333 29.3198 27.72 29.3198 25.76V22.2533C29.3332 20.28 27.7198 18.6666 25.7598 18.6666ZM8.99984 25.3333C8.99984 25.88 8.5465 26.3333 7.99984 26.3333C7.45317 26.3333 6.99984 25.88 6.99984 25.3333V22.6666C6.99984 22.12 7.45317 21.6666 7.99984 21.6666C8.5465 21.6666 8.99984 22.12 8.99984 22.6666V25.3333ZM14.3332 25.3333C14.3332 25.88 13.8798 26.3333 13.3332 26.3333C12.7865 26.3333 12.3332 25.88 12.3332 25.3333V22.6666C12.3332 22.12 12.7865 21.6666 13.3332 21.6666C13.8798 21.6666 14.3332 22.12 14.3332 22.6666V25.3333ZM23.9998 25H18.6665C18.1198 25 17.6665 24.5466 17.6665 24C17.6665 23.4533 18.1198 23 18.6665 23H23.9998C24.5465 23 24.9998 23.4533 24.9998 24C24.9998 24.5466 24.5465 25 23.9998 25Z" fill="#939393"/>
</svg>
