<svg width="14" height="12" viewBox="0 0 14 12" fill="none" xmlns="http://www.w3.org/2000/svg">
<path d="M10.387 3.86896C10.3977 3.86143 10.4262 3.84298 10.5009 3.85849L10.9323 3.95909L12.0931 4.22981L11.4728 3.21196C9.33686 -0.293029 3.88026 0.0514478 2.20182 3.82671C2.16936 3.89099 2.13838 3.90225 2.12483 3.90635C2.10017 3.91382 2.05792 3.91445 2.01008 3.89292C1.96216 3.87135 1.93612 3.83998 1.92654 3.81888C1.92181 3.80846 1.9092 3.77933 1.93798 3.71132C3.76363 -0.353447 9.65096 -0.612987 11.8202 3.23898L12.2444 3.9922L12.6858 3.24893L12.8955 2.89576C12.9349 2.82967 13.025 2.80387 13.0971 2.84541C13.1624 2.88397 13.1833 2.96211 13.1527 3.02468C13.1444 3.03719 13.1384 3.04687 13.1361 3.05053L13.1354 3.05177C13.124 3.06996 13.1105 3.09224 13.096 3.11649C13.0667 3.16542 13.0283 3.23072 12.9847 3.30526C12.9533 3.35892 12.9191 3.41756 12.883 3.47942C12.8175 3.59161 12.7458 3.7144 12.6736 3.83729C12.5616 4.02788 12.452 4.21212 12.3684 4.34688C12.3297 4.40919 12.2999 4.45553 12.2796 4.48545C12.2339 4.52753 12.1765 4.53697 12.1446 4.52918L12.1399 4.52808L10.4331 4.12983C10.3929 4.11938 10.3712 4.10615 10.3603 4.0979C10.3493 4.08949 10.3426 4.08102 10.3378 4.07201C10.327 4.05197 10.3182 4.0134 10.3299 3.96396C10.3416 3.91456 10.3671 3.88302 10.387 3.86896ZM1.70464 7.51702L1.7054 7.51572C1.7303 7.4735 1.80083 7.43735 1.86741 7.45155L3.57139 7.84914C3.61155 7.85955 3.63322 7.87276 3.64399 7.88096C3.65496 7.88932 3.6616 7.89775 3.66645 7.90677C3.67725 7.92685 3.68609 7.96555 3.67433 8.01516C3.66258 8.06473 3.63707 8.09628 3.61724 8.11028C3.60671 8.11771 3.57835 8.13615 3.50365 8.12052L3.07194 8.01991L1.88763 7.74392L2.53527 8.77315C3.48196 10.2776 5.14924 11.2207 7.00216 11.2207C9.06516 11.2207 10.9502 10.0165 11.8042 8.14837L11.8043 8.14815C11.8358 8.07911 11.9215 8.04369 11.9982 8.07806C12.0718 8.11108 12.1002 8.19357 12.0695 8.26068C11.1709 10.2264 9.1821 11.5 7.00216 11.5C4.9656 11.5 3.15431 10.4239 2.18165 8.7357L1.75496 7.9951L1.31851 8.72999L1.11169 9.07824C1.0715 9.1413 1.03868 9.14923 1.0249 9.15183C0.999773 9.15657 0.957743 9.15271 0.912361 9.12603C0.866859 9.09927 0.844306 9.06511 0.837091 9.04318C0.833881 9.03342 0.832488 9.02326 0.833885 9.01053C0.835247 8.99812 0.840231 8.9747 0.85954 8.94011L1.70464 7.51702Z" fill="#939393" stroke="#FFFFFF"/>
</svg>
