<svg width="32" height="32" viewBox="0 0 32 32" fill="none" xmlns="http://www.w3.org/2000/svg">
<path d="M22.8557 8.89882L23.1154 8.63916L22.9453 8.3137C22.5895 7.63281 22.4664 6.85416 22.5947 6.09671C22.7231 5.33927 23.0959 4.64467 23.6562 4.11903C24.2165 3.59339 24.9334 3.26563 25.6975 3.1858C26.4616 3.10597 27.2308 3.27847 27.8877 3.67694C28.5445 4.07542 29.0528 4.67796 29.335 5.39252C29.6171 6.10708 29.6576 6.89436 29.4503 7.63409C29.2429 8.37382 28.7991 9.02533 28.1866 9.48908C27.5748 9.95232 26.8283 10.2028 26.0609 10.2023C25.488 10.1953 24.925 10.0525 24.4179 9.78574L24.092 9.61425L23.8315 9.87468L21.319 12.3873L20.4654 13.2408H21.6725H25.8207C26.3167 13.2408 26.7924 13.4379 27.1432 13.7886C27.494 14.1394 27.691 14.6151 27.691 15.1112V26.963C27.691 27.4591 27.494 27.9348 27.1432 28.2856C26.7924 28.6364 26.3167 28.8334 25.8207 28.8334H6.85769C6.36164 28.8334 5.88591 28.6364 5.53514 28.2856C5.18438 27.9348 4.98732 27.4591 4.98732 26.963V15.1112C4.98732 14.6151 5.18438 14.1394 5.53514 13.7886C5.88591 13.4379 6.36164 13.2408 6.85769 13.2408H11.0058H12.2129L11.3594 12.3873L8.8468 9.87468L8.58636 9.61423L8.26041 9.78576C7.75709 10.0506 7.19853 10.1933 6.6299 10.2023C5.87267 10.1982 5.13736 9.94737 4.53545 9.48777C3.9323 9.02723 3.4961 8.38226 3.29324 7.651C3.09037 6.91975 3.13194 6.14224 3.41161 5.43678C3.69128 4.73133 4.19375 4.13654 4.84257 3.74293C5.49138 3.34931 6.25101 3.17842 7.00588 3.25626C7.76075 3.33409 8.46953 3.65639 9.02438 4.17411C9.57923 4.69183 9.94976 5.37663 10.0796 6.12432C10.2094 6.872 10.0915 7.64163 9.74367 8.31611L9.57632 8.64063L9.83451 8.89882L13.9827 13.047L14.1291 13.1934H14.3362H18.354H18.5611L18.7075 13.047L22.8557 8.89882Z" fill="#FFFFFF" stroke="#FFFFFF"/>
<path d="M13.677 19.5674C13.8633 19.382 13.9904 19.1455 14.0422 18.8879C14.0939 18.6302 14.068 18.363 13.9677 18.12C13.8675 17.8771 13.6973 17.6694 13.4789 17.5232C13.2605 17.3771 13.0036 17.2991 12.7407 17.2991C12.4779 17.2991 12.221 17.3771 12.0026 17.5232C11.7842 17.6694 11.614 17.8771 11.5137 18.12C11.4135 18.363 11.3876 18.6302 11.4393 18.8879C11.4911 19.1455 11.6181 19.382 11.8044 19.5674C11.9268 19.6914 12.0726 19.7898 12.2333 19.857C12.3941 19.9242 12.5665 19.9588 12.7407 19.9588C12.9149 19.9588 13.0874 19.9242 13.2481 19.857C13.4089 19.7898 13.5547 19.6914 13.677 19.5674ZM20.7881 19.5674C20.9744 19.382 21.1015 19.1455 21.1533 18.8879C21.205 18.6302 21.1791 18.363 21.0788 18.12C20.9786 17.8771 20.8084 17.6694 20.59 17.5232C20.3716 17.3771 20.1147 17.2991 19.8518 17.2991C19.589 17.2991 19.3321 17.3771 19.1137 17.5232C18.8953 17.6694 18.7251 17.8771 18.6249 18.12C18.5246 18.363 18.4987 18.6302 18.5504 18.8879C18.6022 19.1455 18.7293 19.382 18.9156 19.5674C19.0379 19.6914 19.1837 19.7898 19.3444 19.857C19.5052 19.9242 19.6776 19.9588 19.8518 19.9588C20.0261 19.9588 20.1985 19.9242 20.3593 19.857C20.52 19.7898 20.6658 19.6914 20.7881 19.5674ZM13.3333 23.4074C13.3333 23.7217 13.4582 24.0232 13.6805 24.2455C13.9027 24.4677 14.2042 24.5926 14.5185 24.5926H18.0741C18.3884 24.5926 18.6899 24.4677 18.9121 24.2455C19.1344 24.0232 19.2593 23.7217 19.2593 23.4074C19.2593 23.0931 19.1344 22.7916 18.9121 22.5694C18.6899 22.3471 18.3884 22.2222 18.0741 22.2222H14.5185C14.2042 22.2222 13.9027 22.3471 13.6805 22.5694C13.4582 22.7916 13.3333 23.0931 13.3333 23.4074Z" fill="#202125"/>
</svg>
