<svg width="16" height="16" viewBox="0 0 16 16" fill="none" xmlns="http://www.w3.org/2000/svg">
<path d="M7.99984 7.99998C9.84079 7.99998 11.3332 6.5076 11.3332 4.66665C11.3332 2.8257 9.84079 1.33331 7.99984 1.33331C6.15889 1.33331 4.6665 2.8257 4.6665 4.66665C4.6665 6.5076 6.15889 7.99998 7.99984 7.99998Z" stroke="#202125" stroke-width="1.5" stroke-linecap="round" stroke-linejoin="round"/>
<path d="M2.27344 14.6667C2.27344 12.0867 4.8401 10 8.0001 10C8.6401 10 9.26011 10.0867 9.84011 10.2467" stroke="#202125" stroke-width="1.5" stroke-linecap="round" stroke-linejoin="round"/>
<path d="M14.6668 12C14.6668 12.2133 14.6402 12.42 14.5868 12.62C14.5268 12.8866 14.4202 13.1466 14.2802 13.3733C13.8202 14.1466 12.9735 14.6666 12.0002 14.6666C11.3135 14.6666 10.6935 14.4066 10.2268 13.98C10.0268 13.8066 9.85349 13.6 9.72015 13.3733C9.47349 12.9733 9.3335 12.5 9.3335 12C9.3335 11.28 9.62017 10.62 10.0868 10.14C10.5735 9.63999 11.2535 9.33331 12.0002 9.33331C12.7868 9.33331 13.5002 9.67332 13.9802 10.22C14.4068 10.6933 14.6668 11.32 14.6668 12Z" stroke="#16171B" stroke-width="1.5" stroke-miterlimit="10" stroke-linecap="round" stroke-linejoin="round"/>
<path d="M12.9935 11.9867H11.0068" stroke="#16171B" stroke-width="1.5" stroke-miterlimit="10" stroke-linecap="round" stroke-linejoin="round"/>
<path d="M12 11.0134V13.0067" stroke="#16171B" stroke-width="1.5" stroke-miterlimit="10" stroke-linecap="round" stroke-linejoin="round"/>
</svg>
