<svg width="28" height="28" viewBox="0 0 28 28" fill="none" xmlns="http://www.w3.org/2000/svg">
<path d="M20.3557 6.89882L20.6154 6.63916L20.4453 6.3137C20.0895 5.63281 19.9664 4.85416 20.0947 4.09671C20.2231 3.33927 20.5959 2.64467 21.1562 2.11903C21.7165 1.59339 22.4334 1.26563 23.1975 1.1858C23.9616 1.10597 24.7308 1.27847 25.3877 1.67694C26.0445 2.07542 26.5528 2.67796 26.835 3.39252C27.1171 4.10708 27.1576 4.89436 26.9503 5.63409C26.7429 6.37382 26.2991 7.02533 25.6866 7.48908C25.0748 7.95232 24.3283 8.20277 23.5609 8.20231C22.988 8.19527 22.425 8.05251 21.9179 7.78574L21.592 7.61425L21.3315 7.87468L18.819 10.3873L17.9654 11.2408H19.1725H23.3207C23.8167 11.2408 24.2924 11.4379 24.6432 11.7886C24.994 12.1394 25.191 12.6151 25.191 13.1112V24.963C25.191 25.4591 24.994 25.9348 24.6432 26.2856C24.2924 26.6364 23.8167 26.8334 23.3207 26.8334H4.35769C3.86164 26.8334 3.38591 26.6364 3.03514 26.2856C2.68438 25.9348 2.48732 25.4591 2.48732 24.963V13.1112C2.48732 12.6151 2.68438 12.1394 3.03514 11.7886C3.38591 11.4379 3.86164 11.2408 4.35769 11.2408H8.50584H9.71295L8.8594 10.3873L6.3468 7.87468L6.08636 7.61423L5.76041 7.78576C5.25709 8.05061 4.69853 8.19329 4.1299 8.20229C3.37267 8.19819 2.63736 7.94737 2.03545 7.48777C1.4323 7.02723 0.996103 6.38226 0.793236 5.651C0.59037 4.91975 0.631936 4.14224 0.911609 3.43678C1.19128 2.73133 1.69375 2.13654 2.34257 1.74293C2.99138 1.34931 3.75101 1.17842 4.50588 1.25626C5.26075 1.33409 5.96953 1.65639 6.52438 2.17411C7.07923 2.69183 7.44976 3.37663 7.5796 4.12432C7.70944 4.872 7.59148 5.64163 7.24367 6.31611L7.07632 6.64063L7.33451 6.89882L11.4827 11.047L11.6291 11.1934H11.8362H15.854H16.0611L16.2075 11.047L20.3557 6.89882Z" fill="#5865F2" stroke="#5865F2"/>
<path d="M11.1772 17.5674C11.3635 17.382 11.4905 17.1455 11.5423 16.8879C11.594 16.6302 11.5681 16.363 11.4679 16.12C11.3676 15.8771 11.1974 15.6694 10.979 15.5232C10.7606 15.3771 10.5037 15.2991 10.2409 15.2991C9.97804 15.2991 9.72114 15.3771 9.50271 15.5232C9.28428 15.6694 9.11414 15.8771 9.01387 16.12C8.91359 16.363 8.88769 16.6302 8.93944 16.8879C8.99119 17.1455 9.11827 17.382 9.30456 17.5674C9.42694 17.6914 9.57272 17.7898 9.73345 17.857C9.89418 17.9242 10.0667 17.9588 10.2409 17.9588C10.4151 17.9588 10.5875 17.9242 10.7483 17.857C10.909 17.7898 11.0548 17.6914 11.1772 17.5674ZM18.2883 17.5674C18.4746 17.382 18.6016 17.1455 18.6534 16.8879C18.7051 16.6302 18.6792 16.363 18.579 16.12C18.4787 15.8771 18.3086 15.6694 18.0901 15.5232C17.8717 15.3771 17.6148 15.2991 17.352 15.2991C17.0892 15.2991 16.8323 15.3771 16.6138 15.5232C16.3954 15.6694 16.2253 15.8771 16.125 16.12C16.0247 16.363 15.9988 16.6302 16.0506 16.8879C16.1023 17.1455 16.2294 17.382 16.4157 17.5674C16.538 17.6914 16.6838 17.7898 16.8446 17.857C17.0053 17.9242 17.1778 17.9588 17.352 17.9588C17.5262 17.9588 17.6987 17.9242 17.8594 17.857C18.0201 17.7898 18.1659 17.6914 18.2883 17.5674ZM10.8335 21.4074C10.8335 21.7217 10.9583 22.0232 11.1806 22.2455C11.4029 22.4677 11.7043 22.5926 12.0186 22.5926H15.5742C15.8885 22.5926 16.19 22.4677 16.4122 22.2455C16.6345 22.0232 16.7594 21.7217 16.7594 21.4074C16.7594 21.0931 16.6345 20.7916 16.4122 20.5694C16.19 20.3471 15.8885 20.2222 15.5742 20.2222H12.0186C11.7043 20.2222 11.4029 20.3471 11.1806 20.5694C10.9583 20.7916 10.8335 21.0931 10.8335 21.4074Z" fill="#202125"/>
</svg>
